<?xml version="1.0" encoding="UTF-8"?>
<!DOCTYPE svg PUBLIC "-//W3C//DTD SVG 1.1//EN" "http://www.w3.org/Graphics/SVG/1.1/DTD/svg11.dtd">
<!-- Creator: CorelDRAW -->
<svg xmlns="http://www.w3.org/2000/svg" xml:space="preserve" width="50px" height="49px" version="1.1" style="shape-rendering:geometricPrecision; text-rendering:geometricPrecision; image-rendering:optimizeQuality; fill-rule:evenodd; clip-rule:evenodd"
viewBox="0 0 19.33 18.84"
 xmlns:xlink="http://www.w3.org/1999/xlink"
 xmlns:xodm="http://www.corel.com/coreldraw/odm/2003">
 <defs>
  <style type="text/css">
   <![CDATA[
    .str0 {stroke:#373435;stroke-width:0.03;stroke-miterlimit:2.61313}
    .fil0 {fill:#FEFEFE;fill-rule:nonzero}
   ]]>
  </style>
 </defs>
 <g id="Layer_x0020_1">
  <metadata id="CorelCorpID_0Corel-Layer"/>
  <path id="github.svg" class="fil0 str0" d="M6.47 15.17c0,0.07 -0.09,0.14 -0.2,0.14 -0.13,0.01 -0.22,-0.06 -0.22,-0.14 0,-0.08 0.09,-0.14 0.2,-0.14 0.12,-0.02 0.22,0.05 0.22,0.14zm-1.21 -0.18c-0.03,0.08 0.05,0.17 0.17,0.19 0.1,0.04 0.21,0 0.24,-0.08 0.02,-0.07 -0.05,-0.16 -0.17,-0.2 -0.1,-0.03 -0.21,0.01 -0.24,0.09zm1.72 -0.07c-0.11,0.03 -0.19,0.11 -0.18,0.19 0.01,0.08 0.11,0.13 0.23,0.11 0.11,-0.03 0.19,-0.11 0.18,-0.18 -0.01,-0.08 -0.12,-0.13 -0.23,-0.12zm2.56 -14.91c-5.4,0 -9.53,4.1 -9.53,9.5 0,4.31 2.72,8.01 6.6,9.31 0.5,0.08 0.67,-0.22 0.67,-0.48 0,-0.24 -0.01,-1.57 -0.01,-2.38 0,0 -2.72,0.58 -3.3,-1.16 0,0 -0.44,-1.14 -1.08,-1.43 0,0 -0.89,-0.61 0.06,-0.6 0,0 0.97,0.08 1.51,1.01 0.85,1.5 2.28,1.07 2.83,0.81 0.09,-0.62 0.35,-1.06 0.63,-1.31 -2.18,-0.24 -4.37,-0.56 -4.37,-4.3 0,-1.07 0.29,-1.61 0.91,-2.29 -0.1,-0.26 -0.43,-1.3 0.11,-2.65 0.81,-0.25 2.68,1.05 2.68,1.05 0.78,-0.21 1.62,-0.33 2.44,-0.33 0.83,0 1.67,0.12 2.45,0.33 0,0 1.87,-1.3 2.68,-1.05 0.54,1.35 0.21,2.39 0.1,2.65 0.63,0.69 1.01,1.22 1.01,2.29 0,3.75 -2.29,4.05 -4.47,4.3 0.36,0.31 0.66,0.89 0.66,1.8 0,1.31 -0.01,2.94 -0.01,3.26 0,0.25 0.18,0.56 0.67,0.47 3.89,-1.29 6.53,-4.99 6.53,-9.3 0,-5.4 -4.37,-9.5 -9.77,-9.5zm-5.74 13.42c-0.06,0.04 -0.04,0.13 0.02,0.21 0.06,0.06 0.15,0.09 0.2,0.03 0.06,-0.03 0.04,-0.12 -0.02,-0.2 -0.06,-0.06 -0.15,-0.09 -0.2,-0.04zm-0.43 -0.31c-0.02,0.05 0.02,0.11 0.09,0.15 0.07,0.04 0.14,0.03 0.17,-0.03 0.03,-0.05 -0.01,-0.11 -0.09,-0.15 -0.08,-0.02 -0.14,-0.01 -0.17,0.03zm1.27 1.38c-0.07,0.05 -0.04,0.17 0.05,0.24 0.09,0.09 0.2,0.11 0.25,0.04 0.05,-0.05 0.03,-0.16 -0.05,-0.24 -0.09,-0.09 -0.2,-0.1 -0.25,-0.04zm-0.45 -0.57c-0.06,0.04 -0.06,0.14 0,0.23 0.06,0.09 0.17,0.13 0.22,0.09 0.06,-0.05 0.06,-0.15 0,-0.24 -0.05,-0.09 -0.16,-0.13 -0.22,-0.08l0 0z"/>
 </g>
</svg>
