<?xml version="1.0" encoding="UTF-8"?>
<!DOCTYPE svg PUBLIC "-//W3C//DTD SVG 1.1//EN" "http://www.w3.org/Graphics/SVG/1.1/DTD/svg11.dtd">
<!-- Creator: CorelDRAW -->
<svg xmlns="http://www.w3.org/2000/svg" xml:space="preserve" width="50px" height="50px" version="1.1" style="shape-rendering:geometricPrecision; text-rendering:geometricPrecision; image-rendering:optimizeQuality; fill-rule:evenodd; clip-rule:evenodd"
viewBox="0 0 487.36 487.35"
 xmlns:xlink="http://www.w3.org/1999/xlink"
 xmlns:xodm="http://www.corel.com/coreldraw/odm/2003">
 <defs>
  <style type="text/css">
   <![CDATA[
    .str0 {stroke:#373435;stroke-width:0.72;stroke-miterlimit:2.61313}
    .fil0 {fill:#FEFEFE;fill-rule:nonzero}
   ]]>
  </style>
 </defs>
 <g id="Layer_x0020_1">
  <metadata id="CorelCorpID_0Corel-Layer"/>
  <path id="linkedin-in.svg" class="fil0 str0" d="M109.29 486.99l-100.89 0 0 -324.9 100.89 0 0 324.9zm-50.5 -369.22c-32.26,0 -58.43,-26.72 -58.43,-58.98 0,-32.26 26.17,-58.43 58.43,-58.43 32.27,0 58.43,26.17 58.43,58.43 0,32.26 -26.18,58.98 -58.43,58.98l0 0zm428.1 369.22l-100.67 0 0 -158.16c0,-37.69 -0.76,-86.03 -52.46,-86.03 -52.45,0 -60.49,40.95 -60.49,83.32l0 160.87 -100.78 0 0 -324.9 96.76 0 0 44.32 1.41 0c13.47,-25.52 46.38,-52.46 95.46,-52.46 102.11,0 120.88,67.23 120.88,154.57l0 178.47 -0.11 0z"/>
 </g>
</svg>
