<?xml version="1.0" encoding="UTF-8"?>
<!DOCTYPE svg PUBLIC "-//W3C//DTD SVG 1.1//EN" "http://www.w3.org/Graphics/SVG/1.1/DTD/svg11.dtd">
<!-- Creator: CorelDRAW -->
<svg xmlns="http://www.w3.org/2000/svg" xml:space="preserve" width="50px" height="50px" version="1.1" style="shape-rendering:geometricPrecision; text-rendering:geometricPrecision; image-rendering:optimizeQuality; fill-rule:evenodd; clip-rule:evenodd"
viewBox="0 0 12.58 12.58"
 xmlns:xlink="http://www.w3.org/1999/xlink"
 xmlns:xodm="http://www.corel.com/coreldraw/odm/2003">
 <defs>
  <style type="text/css">
   <![CDATA[
    .str0 {stroke:#373435;stroke-width:0.02;stroke-miterlimit:2.61313}
    .fil0 {fill:none;fill-rule:nonzero}
   ]]>
  </style>
 </defs>
 <g id="Layer_x0020_1">
  <metadata id="CorelCorpID_0Corel-Layer"/>
  <path id="share-nodes.svg" class="fil0 str0" d="M9.88 5.39c1.48,0 2.69,-1.2 2.69,-2.69 0,-1.49 -1.21,-2.69 -2.69,-2.69 -1.49,0 -2.69,1.2 -2.69,2.69 0,0.11 0,0.22 0.02,0.33l-2.64 1.32c-0.49,-0.47 -1.14,-0.75 -1.87,-0.75 -1.49,0 -2.69,1.2 -2.69,2.69 0,1.48 1.2,2.69 2.69,2.69 0.73,0 1.38,-0.29 1.87,-0.75l2.64 1.31c-0.02,0.11 -0.02,0.22 -0.02,0.34 0,1.48 1.2,2.69 2.69,2.69 1.48,0 2.69,-1.21 2.69,-2.69 0,-1.49 -1.21,-2.69 -2.69,-2.69 -0.73,0 -1.39,0.28 -1.87,0.75l-2.64 -1.32c0.02,-0.11 0.02,-0.22 0.02,-0.33 0,-0.12 0,-0.23 -0.02,-0.34l2.64 -1.31c0.48,0.47 1.14,0.75 1.87,0.75z"/>
 </g>
</svg>
