<?xml version="1.0" encoding="UTF-8"?>
<!DOCTYPE svg PUBLIC "-//W3C//DTD SVG 1.1//EN" "http://www.w3.org/Graphics/SVG/1.1/DTD/svg11.dtd">
<!-- Creator: CorelDRAW -->
<svg xmlns="http://www.w3.org/2000/svg" xml:space="preserve" width="1739px" height="1402px" version="1.1" style="shape-rendering:geometricPrecision; text-rendering:geometricPrecision; image-rendering:optimizeQuality; fill-rule:evenodd; clip-rule:evenodd"
viewBox="0 0 948.96 765.42"
 xmlns:xlink="http://www.w3.org/1999/xlink"
 xmlns:xodm="http://www.corel.com/coreldraw/odm/2003">
 <defs>
  <style type="text/css">
   <![CDATA[
    .fil1 {fill:#3E4095;fill-rule:nonzero}
    .fil0 {fill:black;fill-rule:nonzero}
   ]]>
  </style>
 </defs>
 <g id="Layer_x0020_1">
  <metadata id="CorelCorpID_0Corel-Layer"/>
  <g id="_1727838689024">
   <path id="robot.svg" class="fil0" d="M474.48 0c26.24,0 47.45,21.2 47.45,47.45l0 94.89 177.93 0c59.01,0 106.75,47.75 106.75,106.76l0 403.31c0,59.01 -47.74,106.76 -106.75,106.76l-450.76 0c-59.01,0 -106.76,-47.75 -106.76,-106.76l0 -403.31c0,-59.01 47.75,-106.76 106.76,-106.76l177.93 0 0 -94.89c0,-26.25 21.2,-47.45 47.45,-47.45l0 0zm-166.07 569.38c-13.05,0 -23.72,10.67 -23.72,23.72 0,13.05 10.67,23.72 23.72,23.72l47.45 0c13.05,0 23.72,-10.67 23.72,-23.72 0,-13.05 -10.67,-23.72 -23.72,-23.72l-47.45 0zm142.35 0c-13.05,0 -23.73,10.67 -23.73,23.72 0,13.05 10.68,23.72 23.73,23.72l47.44 0c13.05,0 23.73,-10.67 23.73,-23.72 0,-13.05 -10.68,-23.72 -23.73,-23.72l-47.44 0zm142.34 0c-13.05,0 -23.72,10.67 -23.72,23.72 0,13.05 10.67,23.72 23.72,23.72l47.45 0c13.04,0 23.72,-10.67 23.72,-23.72 0,-13.05 -10.68,-23.72 -23.72,-23.72l-47.45 0zm-201.65 -189.8c0,-32.75 -26.56,-59.31 -59.31,-59.31 -32.75,0 -59.31,26.56 -59.31,59.31 0,32.75 26.56,59.31 59.31,59.31 32.75,0 59.31,-26.56 59.31,-59.31l0 0zm225.37 59.31c32.75,0 59.31,-26.56 59.31,-59.31 0,-32.75 -26.56,-59.31 -59.31,-59.31 -32.75,0 -59.31,26.56 -59.31,59.31 0,32.75 26.56,59.31 59.31,59.31l0 0zm-545.65 -106.75l23.73 0 0 284.68 -23.73 0c-39.29,0 -71.17,-31.88 -71.17,-71.17l0 -142.34c0,-39.3 31.88,-71.17 71.17,-71.17zm806.62 0c39.29,0 71.17,31.87 71.17,71.17l0 142.34c0,39.29 -31.88,71.17 -71.17,71.17l-23.73 0 0 -284.68 23.73 0z"/>
   <path id="image.svg" class="fil1" d="M722.36 252.81c11.27,0 20.5,9.23 20.5,20.51l0 409.83 -6.41 -8.33 -174.29 -225.55c-5.76,-7.56 -14.86,-11.92 -24.34,-11.92 -9.49,0 -18.46,4.36 -24.35,11.92l-106.37 137.64 -39.09 -54.72c-5.76,-8.08 -14.99,-12.82 -24.99,-12.82 -9.99,0 -19.22,4.74 -24.99,12.94l-102.52 143.54 -5.77 7.94 0 -0.38 0 -410.09c0,-11.28 9.23,-20.51 20.51,-20.51l492.11 0zm-492.11 -61.51c-45.24,0 -82.02,36.78 -82.02,82.02l0 410.09c0,45.23 36.78,82.01 82.02,82.01l492.11 0c45.23,0 82.01,-36.78 82.01,-82.01l0 -410.09c0,-45.24 -36.78,-82.02 -82.01,-82.02l-492.11 0zm102.52 246.05c33.97,0 61.51,-27.54 61.51,-61.51 0,-33.97 -27.54,-61.51 -61.51,-61.51 -33.97,0 -61.51,27.54 -61.51,61.51 0,33.97 27.54,61.51 61.51,61.51l0 0z"/>
  </g>
 </g>
</svg>
